<svg xmlns="http://www.w3.org/2000/svg" width="22" height="16" viewBox="0 0 22 16" fill="none">
  <path d="M15.8863 1C16.397 1 16.9027 1.10059 17.3745 1.29602C17.8463 1.49146 18.275 1.77791 18.6361 2.13903C18.9973 2.50015 19.2837 2.92885 19.4792 3.40068C19.6746 3.8725 19.7752 4.37819 19.7752 4.88889V11.1111C19.7752 11.6218 19.6746 12.1275 19.4792 12.5993C19.2837 13.0711 18.9973 13.4999 18.6361 13.861C18.275 14.2221 17.8463 14.5085 17.3745 14.704C16.9027 14.8994 16.397 15 15.8863 15H6.55295C6.04226 15 5.53656 14.8994 5.06474 14.704C4.59292 14.5085 4.16421 14.2221 3.80309 13.861C3.07378 13.1317 2.66406 12.1425 2.66406 11.1111V4.88889C2.66406 3.85749 3.07378 2.86834 3.80309 2.13903C4.5324 1.40972 5.52155 1 6.55295 1H15.8863ZM8.88629 5.66667V10.3333C8.88639 10.4709 8.92298 10.6059 8.9923 10.7247C9.06163 10.8435 9.16122 10.9418 9.28092 11.0096C9.40063 11.0773 9.53615 11.1121 9.67369 11.1104C9.81123 11.1087 9.94585 11.0706 10.0638 10.9999L13.9527 8.66656C14.0677 8.59741 14.1629 8.49969 14.2289 8.38289C14.295 8.26609 14.3297 8.13418 14.3297 8C14.3297 7.86582 14.295 7.73391 14.2289 7.61711C14.1629 7.50032 14.0677 7.40259 13.9527 7.33344L10.0638 5.00011C9.94585 4.92941 9.81123 4.89127 9.67369 4.88956C9.53615 4.88786 9.40063 4.92266 9.28092 4.99042C9.16122 5.05818 9.06163 5.15646 8.9923 5.27526C8.92298 5.39406 8.88639 5.52912 8.88629 5.66667Z" fill="#232835"/>
</svg>