<svg xmlns="http://www.w3.org/2000/svg" width="20" height="20" viewBox="0 0 20 20" fill="none">
  <path d="M5.85121 4.25748C5.85099 4.69256 5.67795 5.10972 5.37016 5.41721C5.06236 5.7247 4.64502 5.89733 4.20994 5.89711C3.77487 5.89689 3.3577 5.72385 3.05021 5.41605C2.74272 5.10826 2.5701 4.69091 2.57031 4.25584C2.57053 3.82077 2.74357 3.4036 3.05137 3.09611C3.35917 2.78862 3.77651 2.61599 4.21158 2.61621C4.64666 2.61643 5.06382 2.78947 5.37131 3.09727C5.6788 3.40507 5.85143 3.82241 5.85121 4.25748ZM5.90043 7.11186H2.61953V17.3811H5.90043V7.11186ZM11.0842 7.11186H7.81975V17.3811H11.0514V11.9922C11.0514 8.99018 14.9639 8.7113 14.9639 11.9922V17.3811H18.2038V10.8767C18.2038 5.81591 12.413 6.00456 11.0514 8.48984L11.0842 7.11186Z" fill="#232835"/>
</svg>